<?xml version="1.0" standalone="no"?>
<!DOCTYPE svg PUBLIC "-//W3C//DTD SVG 20010904//EN"
 "http://www.w3.org/TR/2001/REC-SVG-20010904/DTD/svg10.dtd">
<svg version="1.0" xmlns="http://www.w3.org/2000/svg"
 width="500.000000pt" height="500.000000pt" viewBox="0 0 500.000000 500.000000"
 preserveAspectRatio="xMidYMid meet">
<metadata>
Created by potrace 1.11, written by Peter Selinger 2001-2013
</metadata>
<g transform="translate(0.000000,500.000000) scale(0.100000,-0.100000)"
fill="#000000" stroke="none">
<path d="M2314 4861 c-2 -2 -4 -123 -4 -268 l0 -263 260 0 260 0 1 38 c1 48 1
474 0 487 -1 10 -507 15 -517 6z"/>
<path d="M1134 4021 c-2 -2 -4 -81 -4 -176 l0 -171 198 0 197 1 1 -1622 c1
-1471 -1 -1622 -15 -1625 -9 -2 -98 -3 -199 -3 l-182 1 2 -175 3 -175 425 0
425 0 0 1968 c1 1340 -2 1969 -9 1974 -12 7 -835 10 -842 3z"/>
<path d="M2314 4015 c-2 -5 -3 -894 -2 -1974 l3 -1965 253 0 c146 -1 256 3
260 8 8 14 6 3925 -2 3933 -11 12 -508 9 -512 -2z"/>
<path d="M3167 4022 c-16 -3 -17 -137 -17 -1972 0 -1566 3 -1969 13 -1972 10
-3 773 -2 830 1 16 1 17 14 15 174 l-3 172 -200 1 -200 0 0 1625 0 1624 200 0
200 0 3 164 c2 105 -1 168 -8 175 -9 9 -786 17 -833 8z"/>
</g>
</svg>
